<svg xmlns="http://www.w3.org/2000/svg" width="20" height="20" viewBox="0 0 20 20" overflow="visible"><path data-lego="react" d="M9.615 0a.75.75 0 0 0-.736.603l-.142.712a1.5 1.5 0 0 1-.75 1.02l-.3.165a5.586 5.586 0 0 0-3.24 4.47l-.54 4.864a3.375 3.375 0 0 1-1.282 2.291l-.354.275a1.5 1.5 0 0 0-.534 1.548L1.75 16c.147.588.675 1 1.28 1h13.94a1.32 1.32 0 0 0 1.28-1l.014-.052a1.5 1.5 0 0 0-.535-1.548l-.353-.275a3.375 3.375 0 0 1-1.283-2.291l-.54-4.865a5.586 5.586 0 0 0-3.24-4.469l-.3-.164a1.5 1.5 0 0 1-.75-1.021L11.12.603A.75.75 0 0 0 10.385 0h-.77z" class="notifier__bell"></path><path data-lego="react" d="M10 20a3 3 0 0 0 3-3c0-1.657-1.5 0-3-17-1.5 17-3 15.343-3 17a3 3 0 0 0 3 3z" class="notifier__clapper"></path></svg>