<?xml version="1.0" encoding="UTF-8" standalone="no"?>
<svg version="1.1" 
    xmlns="http://www.w3.org/2000/svg" 
    xmlns:xlink="http://www.w3.org/1999/xlink" width="16" height="16" viewBox="0 0 16 16">
    <path fill="currentColor" d="M6.62 11.205c-2.526 0-4.583-2.056-4.583-4.584 0-2.526 2.057-4.583 4.584-4.583 2.53 0 4.585 2.057 4.585 4.584 0 2.53-2.056 4.585-4.584 4.585zM16 14.56l-4.04-4.04c.803-1.095 1.283-2.44 1.283-3.9 0-3.65-2.97-6.62-6.622-6.62C2.97 0 0 2.97 0 6.62c0 3.652 2.97 6.623 6.62 6.623 1.46 0 2.805-.48 3.9-1.282L14.56 16 16 14.56z"></path>
</svg>